<svg width="100" height="100" xmlns="http://www.w3.org/2000/svg">
  <path d="M 0 15 
           Q 0 10 5 10 
           L 15 10 L 20 0 L 30 0 L 35 10 
           L 95 10 
           Q 100 10 100 15 
           L 100 35 
           Q 100 40 95 40 
           L 55 40 L 50 50 L 40 50 L 35 40 
           L 25 40 
           Q 20 40 20 45 
           L 20 55 
           Q 20 60 25 60 
           L 35 60 L 40 50 L 50 50 L 55 60 
           L 95 60 
           Q 100 60 100 65 
           L 100 85 
           Q 100 90 95 90 
           L 35 90 L 30 100 L 20 100 L 15 90 
           L 5 90 
           Q 0 90 0 85 Z" fill="white"/>
</svg>